<?xml version="1.0" encoding="utf-8"?>
<!-- Generator: Adobe Illustrator 16.0.4, SVG Export Plug-In . SVG Version: 6.00 Build 0)  -->
<!DOCTYPE svg PUBLIC "-//W3C//DTD SVG 1.1//EN" "http://www.w3.org/Graphics/SVG/1.1/DTD/svg11.dtd">
<svg version="1.1" id="Ebene_1" xmlns="http://www.w3.org/2000/svg" xmlns:xlink="http://www.w3.org/1999/xlink" x="0px" y="0px"
	 width="500px" height="250px" viewBox="0 0 500 250" enable-background="new 0 0 500 250" xml:space="preserve">
<g>
	<path fill="#FFFFFF" d="M19.747,210.973c0-3.194,1.6-4.794,4.793-4.794h16.623V39.986H24.54c-3.193,0-4.793-1.6-4.793-4.796V19.21
		c0-3.516,1.277-4.794,4.793-4.794C44.995,13.458,74.08,12.5,92.619,12.5c54.97,0,83.096,18.539,83.096,59.448
		c0,28.765-15.981,50.177-38.672,60.722l37.393,73.509h19.813c3.198,0,4.794,1.6,4.794,4.794v15.661
		c0,3.516-1.597,4.794-4.794,4.794h-42.189c-3.514,0-5.43-1.278-7.03-4.156l-43.466-85.971h-6.39c-7.671,0-12.785-0.32-18.217-0.958
		v65.836h20.133c3.195,0,4.794,1.6,4.794,4.794v15.661c0,3.516-1.279,4.794-4.794,4.794H24.54c-3.193,0-4.793-1.278-4.793-4.794
		V210.973z M76.958,116.051c2.558,0.321,4.794,0.321,7.351,0.321c33.879,0,54.65-13.103,54.65-40.909
		c0-30.362-24.606-36.435-50.498-36.435H76.958V116.051z"/>
	<path fill="#FFFFFF" d="M274.135,108.701h16.617l59.445-68.395h-16.939c-3.195,0-4.795-1.6-4.795-4.793V19.21
		c0-3.516,1.279-4.794,4.795-4.794h65.199c3.198,0,4.793,1.6,4.793,4.794v16.938c0,3.199-1.595,4.796-4.793,4.796h-16.299
		l-63.283,73.828l63.605,91.406h20.77c3.199,0,4.795,1.6,4.795,4.794v15.661c0,3.516-1.596,4.794-4.795,4.794h-40.908
		c-3.195,0-5.752-1.278-7.667-3.836l-64.242-92.684h-16.298v71.271h16.934c3.199,0,4.799,1.6,4.799,4.794v15.661
		c0,3.516-1.6,4.794-4.799,4.794h-69.672c-3.193,0-4.793-1.6-4.793-4.794v-15.661c0-3.516,1.6-4.794,4.793-4.794h16.939V40.306
		h-16.939c-3.193,0-4.793-1.6-4.793-4.793V19.21c0-3.516,1.6-4.794,4.793-4.794h69.672c3.199,0,4.799,1.6,4.799,4.794v16.302
		c0,3.516-1.6,4.793-4.799,4.793h-16.934V108.701z"/>
	<path fill="#FFFFFF" d="M432.309,215.445c0-12.144,9.589-22.049,23.654-22.049c14.703,0,24.29,8.947,24.29,21.732
		c0,12.143-8.309,22.371-23.97,22.371C440.939,237.5,432.309,227.912,432.309,215.445z"/>
</g>
</svg>
